<?xml version="1.0" encoding="utf-8"?>
<!-- Generator: Adobe Illustrator 23.0.5, SVG Export Plug-In . SVG Version: 6.00 Build 0)  -->
<svg version="1.1" id="Layer_1_1_" xmlns="http://www.w3.org/2000/svg" xmlns:xlink="http://www.w3.org/1999/xlink" x="0px" y="0px"
	 viewBox="0 0 64 64" style="enable-background:new 0 0 64 64;" xml:space="preserve">
<g>
	<g>
		<path d="M45,0c-2.1,0-3.9,1.7-4,3.8C34.3,6.7,24.5,8,18,8h-4c-1.3,0-2.4,0.8-2.8,2H8c-0.5,0-1,0.5-1,1v14c0,0.5,0.5,1,1,1h3.2
			c0.4,1.2,1.5,2,2.8,2h4c0.3,0,0.7,0,1,0v3c-1.1,0.2-2.1,0.6-2.9,1.4l-1.7,1.7c-0.6,0.6-1.3,0.9-2.1,0.9H9v-1c0-0.5-0.5-1-1-1H2
			c-0.5,0-1,0.5-1,1v18c0,0.5,0.5,1,1,1h6c0.5,0,1-0.5,1-1v-2h1.3c0.8,0,1.6,0.3,2.1,0.9l0.7,0.7c1,0.9,2.2,1.5,3.5,1.5H32
			c1.7,0,3-1.3,3-3c0-0.8-0.3-1.5-0.8-2c0.5-0.5,0.8-1.2,0.8-2s-0.3-1.5-0.8-2c0.5-0.5,0.8-1.2,0.8-2s-0.3-1.5-0.8-2
			c0.5-0.5,0.8-1.2,0.8-2c0-1.7-1.3-3-3-3h-0.2c0.1-0.3,0.2-0.7,0.2-1c0-1.7-1.3-3-3-3v-2c4.2,0.7,8.5,1.8,12,3.2
			c0.1,2.1,1.8,3.8,4,3.8c2.2,0,4-1.8,4-4V4C49,1.8,47.2,0,45,0z M11,24H9V12h2V24z M17,12h-1c-0.5,0-1,0.5-1,1s0.5,1,1,1h1v8h-1
			c-0.5,0-1,0.5-1,1s0.5,1,1,1h1v2h-3c-0.5,0-1-0.5-1-1V11c0-0.5,0.5-1,1-1h3V12z M7,51H3V35h4V51z M23.8,44c-0.5,0.5-0.8,1.2-0.8,2
			s0.3,1.5,0.8,2c-0.5,0.5-0.8,1.2-0.8,2c0,0.3,0.1,0.7,0.2,1H21V37.4l0.4-0.4h1.8c-0.1,0.3-0.2,0.7-0.2,1c0,0.8,0.3,1.5,0.8,2
			c-0.5,0.5-0.8,1.2-0.8,2S23.3,43.5,23.8,44z M32,51h-6c-0.5,0-1-0.5-1-1s0.5-1,1-1h6c0.5,0,1,0.5,1,1S32.5,51,32,51z M32,47h-6
			c-0.5,0-1-0.5-1-1s0.5-1,1-1h6c0.5,0,1,0.5,1,1S32.5,47,32,47z M32,43h-6c-0.5,0-1-0.5-1-1s0.5-1,1-1h6c0.5,0,1,0.5,1,1
			S32.5,43,32,43z M32,37c0.5,0,1,0.5,1,1s-0.5,1-1,1h-6c-0.5,0-1-0.5-1-1s0.5-1,1-1H32z M30,34c0,0.5-0.5,1-1,1h-8
			c-0.3,0-0.5,0.1-0.7,0.3l-4,4c-0.4,0.4-0.4,1,0,1.4c0.2,0.2,0.5,0.3,0.7,0.3s0.5-0.1,0.7-0.3l1.3-1.3V51h-2.3
			c-0.8,0-1.6-0.3-2.1-0.9l-0.7-0.7c-1-0.9-2.2-1.5-3.5-1.5H9V37h3.3c1.3,0,2.6-0.5,3.5-1.5l1.7-1.7c0.6-0.6,1.3-0.9,2.1-0.9H29
			C29.5,33,30,33.5,30,34z M21,31v-2.9c1.9,0.1,3.9,0.3,6,0.6V31H21z M41,30c-6.6-2.6-15.6-3.9-22-4V10c6.4-0.1,15.4-1.4,22-4V30z
			 M47,32c0,1.1-0.9,2-2,2c-0.8,0-1.4-0.4-1.8-1c-0.2-0.3-0.3-0.6-0.3-1V4c0-0.3,0.1-0.7,0.3-1c0.3-0.6,1-1,1.8-1c1.1,0,2,0.9,2,2
			V32z"/>
		<path d="M28,14c-0.6,0-1,0.4-1,1v6c0,0.6,0.4,1,1,1h8c0.6,0,1-0.4,1-1v-6c0-0.6-0.4-1-1-1H28z M29,16h2v4h-2V16z M35,20h-2v-4h2
		V20z"/>
	</g>
</g>
</svg>
