<?xml version="1.0" encoding="utf-8"?>
<!-- Generator: Adobe Illustrator 23.0.5, SVG Export Plug-In . SVG Version: 6.00 Build 0)  -->
<svg version="1.1" id="Layer_1" xmlns="http://www.w3.org/2000/svg" xmlns:xlink="http://www.w3.org/1999/xlink" x="0px" y="0px"
	 viewBox="0 0 1000 1000" style="enable-background:new 0 0 1000 1000;" xml:space="preserve">
<path d="M855.8,263.3H143.3V182c0-21.2,17.3-38.5,38.5-38.5h635.5c21.2,0,38.5,17.3,38.5,38.5V263.3z M160.3,246.3h678.5V182
	c0-11.9-9.6-21.5-21.5-21.5H181.8c-11.9,0-21.5,9.6-21.5,21.5V246.3z"/>
<path d="M807.8,203.4c0,6.9-5.6,12.5-12.5,12.5h-28c-6.9,0-12.5-5.6-12.5-12.5c0-6.9,5.6-12.5,12.5-12.5h28
	C802.2,190.9,807.8,196.5,807.8,203.4z"/>
<path d="M724.3,203.4c0,6.9-5.6,12.5-12.5,12.5h-28c-6.9,0-12.5-5.6-12.5-12.5c0-6.9,5.6-12.5,12.5-12.5h28
	C718.7,190.9,724.3,196.5,724.3,203.4z"/>
<path d="M640.8,203.4c0,6.9-5.6,12.5-12.5,12.5h-28c-6.9,0-12.5-5.6-12.5-12.5c0-6.9,5.6-12.5,12.5-12.5h28
	C635.2,190.9,640.8,196.5,640.8,203.4z"/>
<path d="M144.2,272.2v419c0,21.2,17.3,38.5,38.5,38.5h115.6l-2.7-10.6c-4.4-17.2-6.6-34.8-6.6-52.4c0-61.5,26.8-119.8,73.5-159.8
	l3.8-3.2C403.7,472.9,451,456,499.5,456c48.5,0,95.9,16.9,133.4,47.6c0.6,0.5,1.2,1,1.8,1.5l0.4,0.4c0.5,0.4,1,0.8,1.5,1.3
	c46.7,40.1,73.5,98.4,73.5,159.9c0,17.6-2.2,35.3-6.6,52.4l-2.7,10.6h117.4c21.2,0,38.5-17.3,38.5-38.5v-419H144.2z M839.7,691.2
	c0,11.9-9.6,21.5-21.5,21.5h-95.7c3.1-15.2,4.7-30.6,4.7-46c0-66.5-29-129.5-79.5-172.8c-0.5-0.4-1-0.9-1.5-1.3
	c-0.2-0.2-0.4-0.3-0.6-0.5c-0.7-0.6-1.3-1.1-2-1.6C603.2,457.2,552,439,499.5,439c-52.5,0-103.6,18.3-144.1,51.4l-4.1,3.5
	c-50.5,43.3-79.4,106.3-79.4,172.8c0,15.4,1.6,30.9,4.7,46h-93.9c-11.8,0-21.5-9.6-21.5-21.5v-402h678.5V691.2z"/>
<path d="M798.5,360.5c0,6.9-5.6,12.5-12.5,12.5h-51c-6.9,0-12.5-5.6-12.5-12.5S728.1,348,735,348h51
	C793,348,798.5,353.6,798.5,360.5z"/>
<path d="M697,360.5c0,6.9-5.6,12.5-12.5,12.5h-51c-6.9,0-12.5-5.6-12.5-12.5s5.6-12.5,12.5-12.5h51C691.5,348,697,353.6,697,360.5z"
	/>
<path d="M799.5,411.4c0,6.9-5.6,12.5-12.5,12.5H634.5c-6.9,0-12.5-5.6-12.5-12.5c0-6.9,5.6-12.5,12.5-12.5H787
	C793.9,398.9,799.5,404.5,799.5,411.4z"/>
<path d="M443,398.7l-42.2,42.2c-4.9,4.9-12.8,4.9-17.7,0s-4.9-12.8,0-17.7l33.4-33.4l-33.4-33.3c-4.9-4.9-4.9-12.8,0-17.7
	s12.8-4.9,17.7,0L443,381C447.9,385.9,447.9,393.8,443,398.7z"/>
<path d="M360.7,330.6L310.8,458c-2.5,6.5-9.7,9.7-16.2,7.2c-6.4-2.5-9.7-9.7-7.2-16.1l49.9-127.4c2.5-6.4,9.7-9.7,16.1-7.2
	C359.9,317,363.1,324.2,360.7,330.6z"/>
<path d="M265,423.2c4.9,4.9,4.9,12.8,0,17.7s-12.8,4.9-17.7,0l-42.2-42.2c-4.9-4.9-4.9-12.8,0-17.7l42.2-42.2
	c4.9-4.9,12.8-4.9,17.7,0s4.9,12.8,0,17.7l-33.3,33.3L265,423.2z"/>
<path d="M510.5,472.9c-1.3-0.1-2.7-0.1-4-0.2c-2-0.1-4-0.1-6-0.1c-1.1,0-2.2,0-3.3,0c-1.6,0-3.3,0.1-4.9,0.1
	c-103.7,4.3-186.7,90-186.7,194.8c0,104.7,83,190.5,186.7,194.8c1.3,0,2.7,0.1,4,0.1c1.4,0,2.8,0,4.2,0c1.7,0,3.4,0,5.1-0.1
	c1.6,0,3.3-0.1,4.9-0.2c102.9-5.2,185-90.6,185-194.7C695.4,563.5,613.3,478.1,510.5,472.9z M471.1,495.1
	c-6.9,6.9-14.8,15.4-22.8,25.4c-9.3,11.7-17.5,23.8-24.5,36.2c-18.3-6.3-31.9-13.9-40.2-19.3C407.7,515.8,437.8,500.8,471.1,495.1z
	 M369.2,552c8.6,5.8,24,15.1,45.5,22.7c-10.6,23.2-17,47.1-18.8,71.1c-0.3,3.9-0.5,7.9-0.6,11.8h-69.5
	C328.1,617.3,344.1,580.5,369.2,552z M325.8,677.6h70.1c2.3,28.2,10.5,56.5,24.6,84.6c-16.8,5.7-33.6,13-50.4,21.9
	C344.4,755.5,328.1,718.4,325.8,677.6z M385,798.9c15.2-7.7,30.3-14,45.2-18.9c12,20.3,27.1,40.6,45.3,60.8
	C441.1,835.8,409.9,820.9,385,798.9z M490.5,827.5c-16-17.7-29.5-35.5-40.4-53.3c13.6-3.4,27-5.5,40.4-6.5V827.5z M490.5,747.9
	c-5.1,0.3-10.3,0.9-15.5,1.5c-11.6,1.5-23.3,3.8-35.1,6.9c-13.6-26.3-21.6-52.6-24-78.7h74.5V747.9z M490.5,657.6h-75.2
	c0.1-3.3,0.2-6.7,0.5-10c1.9-25,9.1-47.5,18.2-66.9c1.4,0.4,2.8,0.7,4.3,1.1c17,4.1,34.5,6.2,52.2,6.4V657.6z M490.5,568.3
	c-15.7-0.2-31.3-2.2-46.5-5.8c-0.1,0-0.2,0-0.3-0.1c6.5-11.2,13.5-20.9,19.9-29c9.7-12.2,19.3-22.1,26.9-29.2V568.3z M675.1,657.6
	h-68.3c-2.3-28.3-10.6-56.7-24.8-85c16.3-5.6,32.6-12.8,48.9-21.5C656.5,579.8,672.8,616.9,675.1,657.6z M616,536.4
	c-14.7,7.5-29.2,13.7-43.7,18.5c-11.9-20.1-26.9-40.2-44.8-60.1C561.1,500,591.6,514.8,616,536.4z M512.2,507.7
	c15.9,17.7,29.4,35.4,40.3,53.1c-13.5,3.5-27,5.7-40.3,6.8V507.7z M512.2,587.5c4.4-0.3,8.8-0.8,13.2-1.4
	c12.3-1.6,24.7-4.1,37.2-7.5c13.7,26.4,21.8,52.8,24.1,79h-74.5V587.5z M512.2,677.6h75.2c-0.1,3.3-0.2,6.7-0.5,10
	c-2,25.3-9.3,48.1-18.6,67.7c-2-0.5-4-1-6.1-1.5c-16.3-3.9-33-6.1-50-6.4V677.6z M512.2,830.9v-63.6c15,0.4,29.8,2.3,44.3,5.7
	c0.7,0.2,1.4,0.3,2.1,0.5c-6.4,10.8-13.2,20.3-19.5,28.2C529.5,813.9,519.8,823.8,512.2,830.9z M531.9,839.7
	c6.8-6.8,14.6-15.2,22.5-25c9.1-11.4,17.1-23.2,24-35.3c17.5,6.2,30.5,13.5,38.6,18.7C593.4,819.1,564.2,833.8,531.9,839.7z
	 M631.3,783.6c-8.3-5.7-23.2-14.6-43.8-22.2c10.8-23.5,17.4-47.8,19.3-72c0.3-3.9,0.5-7.9,0.6-11.8h67.7
	C672.8,718.2,656.7,755,631.3,783.6z"/>
</svg>
